<svg width="38" height="39" viewBox="0 0 38 39" fill="none" xmlns="http://www.w3.org/2000/svg">
<path d="M5.68644 36.2422L6.4 36.969L7.11356 36.2422L19 24.1357L30.8864 36.2422L31.6 36.969L32.3136 36.2422L35.4636 33.0339L36.1514 32.3333L35.4636 31.6327L23.5514 19.5L35.4636 7.36724L36.1514 6.66665L35.4636 5.96606L32.3136 2.75772L31.6 2.03094L30.8864 2.75772L19 14.8643L7.11356 2.75772L6.4 2.03094L5.68644 2.75772L2.53644 5.96606L1.84858 6.66665L2.53644 7.36724L14.4486 19.5L2.53644 31.6327L1.84858 32.3333L2.53644 33.0339L5.68644 36.2422Z" fill="black" stroke="black" stroke-width="2"/>
</svg>
